HIERARCHY
ROOT Hips
{
	OFFSET -0.0000 111.0000 0.0000
	CHANNELS 6 Xposition Yposition Zposition Xrotation Zrotation Yrotation
	JOINT RightUpperLeg
	{
		OFFSET -10.5000 -8.8000 0.0000
		CHANNELS 3 Xrotation Zrotation Yrotation
		JOINT RightLowerLeg
		{
			OFFSET -0.0000 -45.6000 0.0000
			CHANNELS 3 Xrotation Zrotation Yrotation
			JOINT RightFoot
			{
				OFFSET -0.0000 -46.7000 0.0000
				CHANNELS 3 Xrotation Zrotation Yrotation
				JOINT RightToe
				{
					OFFSET -0.0000 -8.0000 12.1000
					CHANNELS 3 Xrotation Zrotation Yrotation
					End Site
					{
						OFFSET -0.0000 0.0000 2.4200
					}
				}
			}
		}
	}
	JOINT LeftUpperLeg
	{
		OFFSET 10.5000 -8.8000 0.0000
		CHANNELS 3 Xrotation Zrotation Yrotation
		JOINT LeftLowerLeg
		{
			OFFSET -0.0000 -45.6000 0.0000
			CHANNELS 3 Xrotation Zrotation Yrotation
			JOINT LeftFoot
			{
				OFFSET -0.0000 -46.7000 0.0000
				CHANNELS 3 Xrotation Zrotation Yrotation
				JOINT LeftToe
				{
					OFFSET -0.0000 -8.0000 12.1000
					CHANNELS 3 Xrotation Zrotation Yrotation
					End Site
					{
						OFFSET -0.0000 0.0000 2.4200
					}
				}
			}
		}
	}
	JOINT Spine
	{
		OFFSET -0.0000 9.7000 0.0000
		CHANNELS 3 Xrotation Zrotation Yrotation
		JOINT Spine1
		{
			OFFSET -0.0000 11.2000 0.0000
			CHANNELS 3 Xrotation Zrotation Yrotation
			JOINT Spine2
			{
				OFFSET -0.0000 12.1000 0.0000
				CHANNELS 3 Xrotation Zrotation Yrotation
				JOINT Spine3
				{
					OFFSET -0.0000 11.7000 1.2000
					CHANNELS 3 Xrotation Zrotation Yrotation
					JOINT Neck
					{
						OFFSET -0.0000 12.0000 -1.2000
						CHANNELS 3 Xrotation Zrotation Yrotation
						JOINT Head
						{
							OFFSET -0.0000 10.0000 0.0000
							CHANNELS 3 Xrotation Zrotation Yrotation
							End Site
							{
								OFFSET -0.0000 20.0000 0.0000
							}
						}
					}
					JOINT RightShoulder
					{
						OFFSET -4.9000 4.0000 -1.2000
						CHANNELS 3 Xrotation Zrotation Yrotation
						JOINT RightUpperArm
						{
							OFFSET -15.6000 0.0000 0.0000
							CHANNELS 3 Xrotation Zrotation Yrotation
							JOINT RightLowerArm
							{
								OFFSET -25.9000 0.0000 0.0000
								CHANNELS 3 Xrotation Zrotation Yrotation
								JOINT RightHand
								{
									OFFSET -28.4000 0.0000 0.0000
									CHANNELS 3 Xrotation Zrotation Yrotation
									JOINT RightThumbFinger
									{
										OFFSET -3.4000 0.3000 4.2000
										CHANNELS 3 Xrotation Zrotation Yrotation
										JOINT RightThumbFinger1
										{
											OFFSET -3.5000 0.0000 3.5000
											CHANNELS 3 Xrotation Zrotation Yrotation
											JOINT RightThumbFinger2
											{
												OFFSET -2.5000 0.0000 2.4000
												CHANNELS 3 Xrotation Zrotation Yrotation
												End Site
												{
													OFFSET -2.1450 0.0000 2.0592
												}
											}
										}
									}
									JOINT RightIndexFinger
									{
										OFFSET -4.4000 0.7000 2.6000
										CHANNELS 3 Xrotation Zrotation Yrotation
										JOINT RightIndexFinger1
										{
											OFFSET -7.0000 -0.1000 1.4000
											CHANNELS 3 Xrotation Zrotation Yrotation
											JOINT RightIndexFinger2
											{
												OFFSET -5.0000 -0.2000 0.0000
												CHANNELS 3 Xrotation Zrotation Yrotation
												JOINT RightIndexFinger3
												{
													OFFSET -2.7000 -0.2000 0.0000
													CHANNELS 3 Xrotation Zrotation Yrotation
													End Site
													{
														OFFSET -2.3814 -0.1764 0.0000
													}
												}
											}
										}
									}
									JOINT RightMiddleFinger
									{
										OFFSET -4.6000 0.7000 1.0000
										CHANNELS 3 Xrotation Zrotation Yrotation
										JOINT RightMiddleFinger1
										{
											OFFSET -7.0000 -0.1000 0.4000
											CHANNELS 3 Xrotation Zrotation Yrotation
											JOINT RightMiddleFinger2
											{
												OFFSET -5.3000 -0.3000 0.0000
												CHANNELS 3 Xrotation Zrotation Yrotation
												JOINT RightMiddleFinger3
												{
													OFFSET -3.4000 -0.3000 0.0000
													CHANNELS 3 Xrotation Zrotation Yrotation
													End Site
													{
														OFFSET -2.9988 -0.2646 0.0000
													}
												}
											}
										}
									}
									JOINT RightRingFinger
									{
										OFFSET -4.5000 0.8000 -0.1000
										CHANNELS 3 Xrotation Zrotation Yrotation
										JOINT RightRingFinger1
										{
											OFFSET -6.3000 -0.1000 -0.7000
											CHANNELS 3 Xrotation Zrotation Yrotation
											JOINT RightRingFinger2
											{
												OFFSET -4.7000 -0.4000 0.0000
												CHANNELS 3 Xrotation Zrotation Yrotation
												JOINT RightRingFinger3
												{
													OFFSET -3.2000 -0.3000 0.0000
													CHANNELS 3 Xrotation Zrotation Yrotation
													End Site
													{
														OFFSET -2.8224 -0.2646 0.0000
													}
												}
											}
										}
									}
									JOINT RightPinkyFinger
									{
										OFFSET -4.3000 0.7000 -1.6000
										CHANNELS 3 Xrotation Zrotation Yrotation
										JOINT RightPinkyFinger1
										{
											OFFSET -5.6000 -0.1000 -1.5000
											CHANNELS 3 Xrotation Zrotation Yrotation
											JOINT RightPinkyFinger2
											{
												OFFSET -3.7000 -0.2000 0.0000
												CHANNELS 3 Xrotation Zrotation Yrotation
												JOINT RightPinkyFinger3
												{
													OFFSET -2.4000 -0.1000 0.0000
													CHANNELS 3 Xrotation Zrotation Yrotation
													End Site
													{
														OFFSET -2.1168 -0.0882 0.0000
													}
												}
											}
										}
									}
								}
							}
						}
					}
					JOINT LeftShoulder
					{
						OFFSET 4.9000 4.0000 -1.2000
						CHANNELS 3 Xrotation Zrotation Yrotation
						JOINT LeftUpperArm
						{
							OFFSET 15.6000 0.0000 0.0000
							CHANNELS 3 Xrotation Zrotation Yrotation
							JOINT LeftLowerArm
							{
								OFFSET 25.9000 0.0000 0.0000
								CHANNELS 3 Xrotation Zrotation Yrotation
								JOINT LeftHand
								{
									OFFSET 28.4000 0.0000 0.0000
									CHANNELS 3 Xrotation Zrotation Yrotation
									JOINT LeftThumbFinger
									{
										OFFSET 3.4000 0.3000 4.2000
										CHANNELS 3 Xrotation Zrotation Yrotation
										JOINT LeftThumbFinger1
										{
											OFFSET 3.5000 0.0000 3.5000
											CHANNELS 3 Xrotation Zrotation Yrotation
											JOINT LeftThumbFinger2
											{
												OFFSET 2.5000 0.0000 2.5000
												CHANNELS 3 Xrotation Zrotation Yrotation
												End Site
												{
													OFFSET 2.1450 0.0000 2.1450
												}
											}
										}
									}
									JOINT LeftIndexFinger
									{
										OFFSET 4.4000 0.7000 2.6000
										CHANNELS 3 Xrotation Zrotation Yrotation
										JOINT LeftIndexFinger1
										{
											OFFSET 7.0000 -0.1000 1.4000
											CHANNELS 3 Xrotation Zrotation Yrotation
											JOINT LeftIndexFinger2
											{
												OFFSET 5.0000 -0.2000 0.0000
												CHANNELS 3 Xrotation Zrotation Yrotation
												JOINT LeftIndexFinger3
												{
													OFFSET 2.7000 -0.2000 0.0000
													CHANNELS 3 Xrotation Zrotation Yrotation
													End Site
													{
														OFFSET 2.3814 -0.1764 0.0000
													}
												}
											}
										}
									}
									JOINT LeftMiddleFinger
									{
										OFFSET 4.6000 0.7000 1.0000
										CHANNELS 3 Xrotation Zrotation Yrotation
										JOINT LeftMiddleFinger1
										{
											OFFSET 7.0000 -0.1000 0.4000
											CHANNELS 3 Xrotation Zrotation Yrotation
											JOINT LeftMiddleFinger2
											{
												OFFSET 5.3000 -0.3000 0.0000
												CHANNELS 3 Xrotation Zrotation Yrotation
												JOINT LeftMiddleFinger3
												{
													OFFSET 3.4000 -0.3000 0.0000
													CHANNELS 3 Xrotation Zrotation Yrotation
													End Site
													{
														OFFSET 2.9988 -0.2646 0.0000
													}
												}
											}
										}
									}
									JOINT LeftRingFinger
									{
										OFFSET 4.5000 0.8000 -0.1000
										CHANNELS 3 Xrotation Zrotation Yrotation
										JOINT LeftRingFinger1
										{
											OFFSET 6.3000 -0.1000 -0.7000
											CHANNELS 3 Xrotation Zrotation Yrotation
											JOINT LeftRingFinger2
											{
												OFFSET 4.7000 -0.3000 0.0000
												CHANNELS 3 Xrotation Zrotation Yrotation
												JOINT LeftRingFinger3
												{
													OFFSET 3.2000 -0.2000 0.0000
													CHANNELS 3 Xrotation Zrotation Yrotation
													End Site
													{
														OFFSET 2.8224 -0.1764 0.0000
													}
												}
											}
										}
									}
									JOINT LeftPinkyFinger
									{
										OFFSET 4.3000 0.7000 -1.6000
										CHANNELS 3 Xrotation Zrotation Yrotation
										JOINT LeftPinkyFinger1
										{
											OFFSET 5.6000 -0.1000 -1.5000
											CHANNELS 3 Xrotation Zrotation Yrotation
											JOINT LeftPinkyFinger2
											{
												OFFSET 3.7000 -0.2000 0.1000
												CHANNELS 3 Xrotation Zrotation Yrotation
												JOINT LeftPinkyFinger3
												{
													OFFSET 2.4000 -0.1000 -0.1000
													CHANNELS 3 Xrotation Zrotation Yrotation
													End Site
													{
														OFFSET 2.1168 -0.0882 -0.0882
													}
												}
											}
										}
									}
								}
							}
						}
					}
				}
			}
		}
	}
}
MOTION
Frames: 7
Frame Time: 0.010417
6.47 111.02 5.75 -0.15 0.18 12.94 -2.13 -0.69 -0.57 5.35 -0.17 3.59 -3.07 0.51 -8.44 -0.00 -0.00 0.00 1.27 -0.80 8.48 1.41 -0.02 2.03 -2.76 0.43 3.59 0.00 0.00 -0.00 -0.22 -0.13 0.31 -0.25 -0.36 0.37 -0.26 -0.42 0.41 -0.27 -0.41 0.40 9.43 2.85 -10.08 8.08 2.32 -8.61 2.04 -17.42 -2.69 -17.14 17.55 13.39 -2.74 1.24 -0.05 7.29 -0.14 -2.67 12.09 -0.61 -0.94 2.56 8.12 -15.16 -1.51 14.29 -20.79 0.00 0.00 0.00 0.01 0.19 2.00 -0.12 3.43 -0.00 -0.06 1.70 -0.01 0.00 0.00 0.00 0.00 0.32 0.00 0.01 5.18 0.00 -0.01 2.59 0.01 0.00 0.00 0.00 0.00 -10.00 -1.96 0.00 -0.00 0.00 0.00 -0.00 0.00 0.00 0.00 0.00 0.00 1.04 -4.00 0.88 12.42 0.21 0.45 6.35 0.16 7.86 21.88 -6.43 -16.29 -17.43 -12.13 -5.29 -1.85 0.17 4.38 4.88 22.08 28.75 0.00 -0.01 11.67 -4.71 -1.86 17.96 -5.91 -4.75 0.00 0.00 0.00 0.00 -0.57 -2.00 -0.30 -8.19 0.04 -0.14 -4.12 0.04 0.00 0.00 0.00 0.00 -1.35 -0.01 -0.01 -14.59 -0.00 0.00 -7.51 0.00 0.00 0.00 0.00 0.00 -0.79 1.99 0.36 -10.26 -0.06 0.17 -5.21 -0.05 0.00 0.00 0.00 0.00 -3.13 3.99 1.78 -24.01 -0.82 0.81 -12.84 -0.59 
6.47 111.02 5.75 -0.15 0.18 12.93 -2.13 -0.69 -0.56 5.35 -0.17 3.59 -3.07 0.51 -8.44 -0.00 -0.00 0.00 1.27 -0.80 8.50 1.41 -0.02 2.02 -2.76 0.43 3.59 0.00 0.00 -0.00 -0.20 -0.13 0.31 -0.24 -0.38 0.38 -0.27 -0.41 0.41 -0.26 -0.42 0.40 9.44 2.86 -10.07 8.08 2.32 -8.61 2.07 -17.41 -2.69 -17.12 17.54 13.41 -2.79 1.25 -0.06 7.28 -0.14 -2.65 12.10 -0.62 -0.94 2.56 8.15 -15.17 -1.50 14.33 -20.78 0.00 -0.00 0.00 -0.01 0.18 2.00 -0.11 3.43 -0.00 -0.06 1.70 -0.01 0.00 -0.00 0.00 -0.00 0.31 0.00 0.01 5.19 0.00 -0.01 2.60 0.00 0.00 -0.00 0.00 -0.00 -10.00 -1.97 -0.00 -0.00 0.00 -0.00 -0.00 0.00 0.00 -0.00 0.00 0.00 1.03 -4.00 0.87 12.37 0.21 0.44 6.32 0.15 7.89 21.88 -6.43 -16.30 -17.41 -12.14 -5.30 -1.83 0.18 4.39 4.89 22.08 28.75 0.00 -0.01 11.67 -4.70 -1.85 17.97 -5.90 -4.78 0.00 0.00 0.00 -0.01 -0.57 -2.00 -0.29 -8.16 0.05 -0.15 -4.11 0.03 0.00 0.00 0.00 -0.01 -1.34 -0.01 0.00 -14.58 0.01 -0.01 -7.51 -0.00 0.00 0.00 0.00 -0.01 -0.79 1.99 0.36 -10.27 -0.06 0.19 -5.21 -0.05 0.00 0.00 0.00 -0.01 -3.12 3.99 1.78 -24.01 -0.81 0.81 -12.84 -0.59 
6.48 111.02 5.75 -0.15 0.18 12.92 -2.13 -0.69 -0.55 5.35 -0.17 3.60 -3.07 0.51 -8.45 -0.00 -0.00 0.00 1.27 -0.80 8.51 1.41 -0.03 2.02 -2.76 0.44 3.59 0.00 0.00 -0.00 -0.20 -0.14 0.32 -0.25 -0.37 0.37 -0.26 -0.43 0.41 -0.26 -0.42 0.41 9.46 2.86 -10.07 8.09 2.31 -8.58 2.11 -17.40 -2.69 -17.12 17.56 13.42 -2.75 1.25 -0.06 7.28 -0.12 -2.65 12.10 -0.62 -0.94 2.57 8.17 -15.18 -1.52 14.36 -20.80 0.00 -0.00 -0.00 0.01 0.18 2.00 -0.13 3.44 -0.01 -0.06 1.71 -0.01 0.00 -0.00 -0.00 0.01 0.31 0.00 0.00 5.19 -0.01 -0.01 2.60 0.01 0.00 -0.00 -0.00 -0.01 -10.00 -1.97 0.00 -0.00 0.00 0.00 -0.00 0.00 0.00 -0.00 -0.00 0.00 1.03 -3.99 0.87 12.32 0.20 0.43 6.29 0.15 7.93 21.87 -6.42 -16.31 -17.41 -12.14 -5.33 -1.86 0.17 4.37 4.93 22.10 28.75 -0.01 0.00 11.67 -4.70 -1.86 17.97 -5.90 -4.78 0.00 0.00 0.00 0.01 -0.57 -2.00 -0.30 -8.16 0.05 -0.15 -4.12 0.03 0.00 0.00 0.00 0.00 -1.35 0.01 -0.00 -14.58 -0.00 -0.00 -7.51 -0.01 0.00 0.00 0.00 0.00 -0.79 2.00 0.36 -10.27 -0.07 0.17 -5.21 -0.05 0.00 0.00 0.00 0.00 -3.13 4.00 1.77 -24.01 -0.83 0.81 -12.83 -0.59 
6.48 111.02 5.75 -0.15 0.18 12.92 -2.13 -0.69 -0.55 5.34 -0.17 3.60 -3.06 0.51 -8.45 -0.00 -0.00 0.00 1.27 -0.80 8.51 1.41 -0.03 2.02 -2.76 0.44 3.59 0.00 0.00 -0.00 -0.20 -0.14 0.31 -0.24 -0.38 0.38 -0.25 -0.43 0.41 -0.26 -0.43 0.41 9.47 2.86 -10.05 8.12 2.32 -8.58 2.13 -17.39 -2.68 -17.10 17.54 13.47 -2.72 1.27 -0.06 7.31 -0.07 -2.67 12.10 -0.61 -0.95 2.57 8.16 -15.17 -1.51 14.36 -20.80 0.00 0.00 0.00 0.00 0.19 2.00 -0.12 3.44 -0.01 -0.06 1.70 -0.00 0.00 0.00 0.00 0.01 0.31 0.00 -0.00 5.20 -0.00 0.00 2.59 -0.00 0.00 0.00 0.00 -0.00 -10.00 -1.97 0.00 -0.00 0.00 0.00 -0.00 0.00 0.00 0.00 0.00 0.00 1.04 -3.99 0.88 12.32 0.20 0.43 6.29 0.15 7.96 21.87 -6.42 -16.32 -17.41 -12.15 -5.38 -1.85 0.18 4.35 4.92 22.13 28.75 0.00 -0.00 11.67 -4.69 -1.87 17.97 -5.87 -4.78 0.00 0.00 0.00 0.01 -0.56 -2.01 -0.29 -8.15 0.04 -0.13 -4.11 0.03 0.00 0.00 0.00 0.00 -1.34 -0.01 -0.00 -14.57 0.00 -0.00 -7.51 0.00 0.00 0.00 0.00 0.00 -0.79 1.99 0.37 -10.27 -0.07 0.18 -5.21 -0.05 0.00 0.00 0.00 0.00 -3.12 3.99 1.78 -23.99 -0.81 0.81 -12.82 -0.60 
6.48 111.02 5.75 -0.15 0.18 12.91 -2.14 -0.69 -0.53 5.34 -0.17 3.60 -3.06 0.51 -8.45 -0.00 -0.00 0.00 1.27 -0.81 8.52 1.42 -0.02 2.02 -2.77 0.44 3.59 0.00 0.00 -0.00 -0.20 -0.14 0.32 -0.23 -0.39 0.38 -0.26 -0.43 0.41 -0.25 -0.44 0.41 9.48 2.85 -10.04 8.12 2.32 -8.58 2.16 -17.37 -2.69 -17.08 17.54 13.49 -2.72 1.27 -0.06 7.35 0.02 -2.68 12.13 -0.60 -0.94 2.58 8.17 -15.17 -1.49 14.38 -20.78 0.00 0.00 0.00 0.01 0.19 2.00 -0.12 3.44 -0.00 -0.06 1.71 -0.00 0.00 0.00 0.00 0.01 0.31 0.00 -0.00 5.19 -0.01 0.00 2.59 0.00 0.00 0.00 0.00 -0.00 -9.99 -1.97 -0.00 -0.00 0.00 -0.00 -0.00 0.00 0.00 0.00 0.00 0.01 1.03 -4.00 0.88 12.34 0.21 0.43 6.29 0.15 8.00 21.87 -6.41 -16.35 -17.40 -12.15 -5.40 -1.86 0.17 4.35 4.93 22.16 28.77 0.00 0.00 11.69 -4.70 -1.90 17.98 -5.87 -4.81 0.00 0.00 0.00 0.01 -0.56 -2.01 -0.29 -8.17 0.04 -0.14 -4.13 0.03 0.00 0.00 0.00 0.00 -1.34 -0.01 -0.00 -14.58 0.01 -0.00 -7.52 -0.01 0.00 0.00 0.00 0.00 -0.79 1.99 0.36 -10.26 -0.07 0.18 -5.22 -0.05 0.00 0.00 0.00 -0.00 -3.11 3.99 1.78 -23.95 -0.81 0.81 -12.80 -0.59 
6.48 111.02 5.75 -0.15 0.18 12.91 -2.13 -0.70 -0.53 5.34 -0.16 3.60 -3.06 0.51 -8.45 -0.00 -0.00 0.00 1.27 -0.81 8.52 1.42 -0.02 2.02 -2.77 0.44 3.59 0.00 0.00 -0.00 -0.19 -0.15 0.32 -0.24 -0.40 0.37 -0.25 -0.44 0.42 -0.26 -0.43 0.41 9.50 2.84 -10.04 8.14 2.31 -8.57 2.20 -17.36 -2.69 -17.09 17.55 13.50 -2.71 1.27 -0.06 7.36 0.05 -2.69 12.14 -0.61 -0.93 2.58 8.19 -15.19 -1.50 14.41 -20.79 -0.00 -0.00 0.00 -0.01 0.19 2.00 -0.11 3.43 -0.00 -0.06 1.70 0.00 -0.00 -0.00 0.00 -0.01 0.31 0.00 0.00 5.18 -0.00 0.01 2.58 0.00 -0.00 -0.00 0.00 -0.00 -9.99 -1.96 0.00 -0.00 0.00 0.00 -0.00 0.00 -0.00 -0.00 0.00 -0.00 1.04 -3.99 0.88 12.37 0.21 0.44 6.32 0.15 8.03 21.86 -6.41 -16.36 -17.40 -12.15 -5.42 -1.88 0.18 4.38 4.90 22.24 28.78 -0.00 0.00 11.68 -4.69 -1.89 17.99 -5.89 -4.81 0.00 0.00 0.00 -0.00 -0.57 -1.99 -0.29 -8.17 0.04 -0.14 -4.13 0.03 0.00 0.00 0.00 0.00 -1.34 0.01 -0.00 -14.53 -0.01 0.00 -7.49 -0.00 0.00 0.00 0.00 0.00 -0.79 2.00 0.36 -10.23 -0.07 0.18 -5.20 -0.04 0.00 0.00 0.00 -0.00 -3.10 4.00 1.77 -23.90 -0.81 0.81 -12.77 -0.58 
6.48 111.02 5.75 -0.15 0.18 12.91 -2.13 -0.70 -0.53 5.34 -0.16 3.60 -3.06 0.51 -8.45 -0.00 -0.00 0.00 1.27 -0.81 8.52 1.42 -0.02 2.02 -2.77 0.44 3.59 0.00 0.00 -0.00 -0.19 -0.15 0.32 -0.23 -0.41 0.38 -0.26 -0.44 0.41 -0.25 -0.44 0.41 9.51 2.85 -10.02 8.14 2.30 -8.57 2.22 -17.35 -2.70 -17.05 17.55 13.54 -2.75 1.28 -0.06 7.35 0.10 -2.70 12.14 -0.61 -0.92 2.58 8.19 -15.19 -1.50 14.41 -20.80 0.00 -0.00 -0.00 -0.00 0.19 2.00 -0.11 3.43 -0.00 -0.06 1.70 -0.01 0.00 -0.00 -0.00 0.01 0.31 0.00 0.00 5.18 -0.00 -0.00 2.58 0.00 0.00 -0.00 -0.00 0.00 -10.00 -1.96 0.00 0.00 0.00 0.00 0.00 0.00 0.00 -0.00 -0.00 0.01 1.03 -3.99 0.88 12.38 0.20 0.42 6.32 0.15 8.06 21.86 -6.42 -16.36 -17.44 -12.16 -5.42 -1.87 0.17 4.42 4.87 22.32 28.78 -0.01 -0.00 11.68 -4.69 -1.88 17.99 -5.88 -4.80 0.00 -0.00 0.00 -0.00 -0.57 -2.00 -0.28 -8.18 0.04 -0.15 -4.12 0.04 0.00 -0.00 0.00 0.00 -1.34 -0.01 0.00 -14.53 0.01 -0.00 -7.49 -0.01 0.00 -0.00 0.00 0.00 -0.79 2.00 0.36 -10.24 -0.08 0.18 -5.19 -0.05 0.00 -0.00 0.00 -0.00 -3.10 4.00 1.77 -23.90 -0.81 0.81 -12.77 -0.57 
